<svg xmlns="http://www.w3.org/2000/svg" viewBox="0 0 128 128" width="128" height="128">
  <defs>
    <radialGradient id="hologram" cx="50%" cy="50%" r="50%">
      <stop offset="0%" stop-color="#34d399" stop-opacity="0.9"/>
      <stop offset="60%" stop-color="#059669" stop-opacity="0.8"/>
      <stop offset="100%" stop-color="#064e3b" stop-opacity="0"/>
    </radialGradient>
    <linearGradient id="shield_grad" x1="0%" y1="0%" x2="100%" y2="100%">
      <stop offset="0%" stop-color="#a7f3d0"/>
      <stop offset="40%" stop-color="#10b981"/>
      <stop offset="100%" stop-color="#047857"/>
    </linearGradient>
  </defs>
  
  <!-- Outer circle ambient glow style -->
  <circle cx="64" cy="64" r="58" fill="url(#hologram)" />
  
  <g transform="translate(16, 16)">
    <!-- Base shield geometry -->
    <path d="M48 4C28 4 16 16 16 38C16 68 48 88 48 88C48 88 80 68 80 38C80 16 68 4 48 4Z" 
          fill="none" 
          stroke="url(#shield_grad)" 
          stroke-width="6" 
          stroke-linejoin="round" />
    
    <!-- Inner lock shackle design -->
    <path d="M48 24C41.37 24 36 29.37 36 36V45H60V36C60 29.37 54.63 24 48 24Z" 
          fill="none" 
          stroke="#eff6ff" 
          stroke-width="4.5" />
          
    <rect x="30" y="44" width="36" height="24" rx="6" fill="url(#shield_grad)" />
    
    <!-- Lock core keyhole visual -->
    <circle cx="48" cy="54" r="3.5" fill="#030712" />
    <path d="M48 57.5 L48 64 L45 64 L45 61" stroke="#030712" stroke-width="2" stroke-linecap="round" fill="none" />
  </g>
</svg>
